<svg id="visual" viewBox="0 0 900 450" width="900" height="450" xmlns="http://www.w3.org/2000/svg" xmlns:xlink="http://www.w3.org/1999/xlink" version="1.1"><rect x="0" y="0" width="900" height="450" fill="#212529"></rect><defs><linearGradient id="grad1_0" x1="50%" y1="0%" x2="100%" y2="100%"><stop offset="10%" stop-color="#212529" stop-opacity="1"></stop><stop offset="90%" stop-color="#212529" stop-opacity="1"></stop></linearGradient></defs><defs><linearGradient id="grad2_0" x1="0%" y1="0%" x2="50%" y2="100%"><stop offset="10%" stop-color="#212529" stop-opacity="1"></stop><stop offset="90%" stop-color="#212529" stop-opacity="1"></stop></linearGradient></defs><g transform="translate(900, 0)"><path d="M0 225C-42.1 220.7 -84.3 216.4 -112.5 194.9C-140.7 173.3 -155 134.4 -171.5 99C-187.9 63.6 -206.5 31.8 -225 0L0 0Z" fill="#0099ff"></path></g><g transform="translate(0, 450)"><path d="M0 -225C30.5 -204.1 61 -183.3 96.5 -167.1C132 -151 172.6 -139.6 194.9 -112.5C217.1 -85.4 221.1 -42.7 225 0L0 0Z" fill="#0099ff"></path></g></svg>