<svg id="visual" viewBox="0 0 900 450" width="900" height="450" xmlns="http://www.w3.org/2000/svg" xmlns:xlink="http://www.w3.org/1999/xlink" version="1.1"><rect x="0" y="0" width="900" height="450" fill="#fff"></rect><path d="M0 275L21.5 275.8C43 276.7 86 278.3 128.8 286.5C171.7 294.7 214.3 309.3 257.2 314C300 318.7 343 313.3 385.8 311C428.7 308.7 471.3 309.3 514.2 311.7C557 314 600 318 642.8 316.2C685.7 314.3 728.3 306.7 771.2 306.2C814 305.7 857 312.3 878.5 315.7L900 319L900 451L878.5 451C857 451 814 451 771.2 451C728.3 451 685.7 451 642.8 451C600 451 557 451 514.2 451C471.3 451 428.7 451 385.8 451C343 451 300 451 257.2 451C214.3 451 171.7 451 128.8 451C86 451 43 451 21.5 451L0 451Z" fill="#0099ff"></path><path d="M0 320L21.5 326.2C43 332.3 86 344.7 128.8 342.7C171.7 340.7 214.3 324.3 257.2 321C300 317.7 343 327.3 385.8 330C428.7 332.7 471.3 328.3 514.2 324.3C557 320.3 600 316.7 642.8 319.7C685.7 322.7 728.3 332.3 771.2 335.3C814 338.3 857 334.7 878.5 332.8L900 331L900 451L878.5 451C857 451 814 451 771.2 451C728.3 451 685.7 451 642.8 451C600 451 557 451 514.2 451C471.3 451 428.7 451 385.8 451C343 451 300 451 257.2 451C214.3 451 171.7 451 128.8 451C86 451 43 451 21.5 451L0 451Z" fill="#75b1ff"></path><path d="M0 353L21.5 349.5C43 346 86 339 128.8 336.7C171.7 334.3 214.3 336.7 257.2 337C300 337.3 343 335.7 385.8 334C428.7 332.3 471.3 330.7 514.2 337.2C557 343.7 600 358.3 642.8 365.8C685.7 373.3 728.3 373.7 771.2 368.2C814 362.7 857 351.3 878.5 345.7L900 340L900 451L878.5 451C857 451 814 451 771.2 451C728.3 451 685.7 451 642.8 451C600 451 557 451 514.2 451C471.3 451 428.7 451 385.8 451C343 451 300 451 257.2 451C214.3 451 171.7 451 128.8 451C86 451 43 451 21.5 451L0 451Z" fill="#aacaff"></path><path d="M0 400L21.5 399.5C43 399 86 398 128.8 393.7C171.7 389.3 214.3 381.7 257.2 380.5C300 379.3 343 384.7 385.8 387.3C428.7 390 471.3 390 514.2 392C557 394 600 398 642.8 395.3C685.7 392.7 728.3 383.3 771.2 381.2C814 379 857 384 878.5 386.5L900 389L900 451L878.5 451C857 451 814 451 771.2 451C728.3 451 685.7 451 642.8 451C600 451 557 451 514.2 451C471.3 451 428.7 451 385.8 451C343 451 300 451 257.2 451C214.3 451 171.7 451 128.8 451C86 451 43 451 21.5 451L0 451Z" fill="#d6e4ff"></path><path d="M0 398L21.5 402C43 406 86 414 128.8 417.2C171.7 420.3 214.3 418.7 257.2 418.3C300 418 343 419 385.8 416.3C428.7 413.7 471.3 407.3 514.2 408C557 408.7 600 416.3 642.8 418.8C685.7 421.3 728.3 418.7 771.2 414.8C814 411 857 406 878.5 403.5L900 401L900 451L878.5 451C857 451 814 451 771.2 451C728.3 451 685.7 451 642.8 451C600 451 557 451 514.2 451C471.3 451 428.7 451 385.8 451C343 451 300 451 257.2 451C214.3 451 171.7 451 128.8 451C86 451 43 451 21.5 451L0 451Z" fill="#ffffff"></path></svg>