<?xml version="1.0" standalone="no"?><svg xmlns="http://www.w3.org/2000/svg" viewBox="0 0 1440 320"><path fill="#0099ff" fill-opacity="1" d="M0,64L26.7,69.3C53.3,75,107,85,160,96C213.3,107,267,117,320,122.7C373.3,128,427,128,480,144C533.3,160,587,192,640,197.3C693.3,203,747,181,800,192C853.3,203,907,245,960,234.7C1013.3,224,1067,160,1120,133.3C1173.3,107,1227,117,1280,106.7C1333.3,96,1387,64,1413,48L1440,32L1440,320L1413.3,320C1386.7,320,1333,320,1280,320C1226.7,320,1173,320,1120,320C1066.7,320,1013,320,960,320C906.7,320,853,320,800,320C746.7,320,693,320,640,320C586.7,320,533,320,480,320C426.7,320,373,320,320,320C266.7,320,213,320,160,320C106.7,320,53,320,27,320L0,320Z"></path></svg>